<svg width="25" height="25" viewBox="0 0 25 25" fill="none" xmlns="http://www.w3.org/2000/svg">
<path d="M3.95235 12.5303C4.5119 9.73259 4.79167 8.33371 5.71612 7.43274C5.88699 7.26622 6.07183 7.11469 6.26862 6.9798C7.33339 6.25 8.75998 6.25 11.6131 6.25H13.387C16.2402 6.25 17.6668 6.25 18.7316 6.9798C18.9284 7.11469 19.1131 7.26622 19.2841 7.43274C20.2085 8.33371 20.4882 9.73259 21.0478 12.5303C21.8512 16.547 22.2528 18.5553 21.3281 19.9784C21.1607 20.2361 20.9653 20.4745 20.7455 20.6892C19.5314 21.875 17.4832 21.875 13.387 21.875H11.6131C7.51691 21.875 5.46881 21.875 4.25467 20.6892C4.03483 20.4745 3.83941 20.2361 3.672 19.9784C2.74735 18.5553 3.14902 16.547 3.95235 12.5303Z" stroke="#DCDCDC"/>
<path opacity="0.5" d="M15.625 10.4167C16.2003 10.4167 16.6667 9.95029 16.6667 9.37499C16.6667 8.7997 16.2003 8.33333 15.625 8.33333C15.0497 8.33333 14.5834 8.7997 14.5834 9.37499C14.5834 9.95029 15.0497 10.4167 15.625 10.4167Z" fill="#DCDCDC"/>
<path opacity="0.5" d="M9.37504 10.4167C9.95034 10.4167 10.4167 9.95029 10.4167 9.37499C10.4167 8.7997 9.95034 8.33333 9.37504 8.33333C8.79974 8.33333 8.33337 8.7997 8.33337 9.37499C8.33337 9.95029 8.79974 10.4167 9.37504 10.4167Z" fill="#DCDCDC"/>
<path opacity="0.5" d="M9.375 6.25V5.20833C9.375 3.48244 10.7741 2.08333 12.5 2.08333C14.2259 2.08333 15.625 3.48244 15.625 5.20833V6.25" stroke="#DCDCDC" stroke-linecap="round"/>
</svg>
