<svg width="90" height="90" viewBox="0 0 90 90" fill="none" xmlns="http://www.w3.org/2000/svg">
<g clip-path="url(#clip0_3_2)">
<path d="M44.9842 6.66802C23.8491 6.66802 6.65234 23.8647 6.65234 44.9999C6.65234 66.1351 23.8491 83.3318 44.9842 83.3318C66.1194 83.3318 83.3161 66.1351 83.3161 44.9999C83.3161 23.8647 66.1194 6.66802 44.9842 6.66802ZM44.9842 80.0952C25.6038 80.0952 9.88891 64.3803 9.88891 44.9999C9.88891 25.6195 25.6038 9.89679 44.9842 9.89679C64.3647 9.89679 80.0874 25.6117 80.0874 44.9999C80.0874 64.3881 64.3725 80.0952 44.9842 80.0952Z" fill="white"/>
<path d="M89.9844 45C89.9844 43.2686 89.3917 41.5373 88.1906 40.1335C87.013 38.7608 86.3969 37.0295 86.3969 35.2747C86.3969 34.5026 86.5139 33.7227 86.7634 32.9584C87.013 32.1941 87.13 31.4142 87.13 30.6499C87.13 27.8969 85.6092 25.2764 83.0433 23.974C81.8813 23.3813 80.922 22.5156 80.2201 21.4627C79.5182 20.4099 79.0815 19.1854 78.9801 17.8908C78.8397 16.0503 78.0364 14.4047 76.812 13.1802C75.5875 11.9558 73.9341 11.1525 72.1014 11.0043C70.8068 10.9029 69.5823 10.4662 68.5295 9.7643C67.4766 9.06239 66.6109 8.10312 66.0182 6.94107C64.708 4.37522 62.0953 2.85442 59.3423 2.85442C58.5702 2.85442 57.7903 2.9714 57.026 3.22097C54.5459 4.02426 51.8319 3.48614 49.8509 1.79376C48.4471 0.60052 46.7158 0 44.9922 0C43.2686 0 41.5295 0.60052 40.1334 1.79376C38.753 2.9714 37.0295 3.58752 35.2747 3.58752C34.4948 3.58752 33.7227 3.47054 32.9584 3.22097C32.1941 2.9714 31.4142 2.85442 30.6421 2.85442C27.8891 2.85442 25.2764 4.37522 23.9662 6.94107C23.3735 8.10312 22.5078 9.06239 21.4549 9.7643C20.4021 10.4584 19.1776 10.9029 17.883 11.0043C16.0503 11.1525 14.4047 11.9558 13.1802 13.1802C11.9558 14.4047 11.1525 16.0503 11.0043 17.8908C10.9029 19.1854 10.4662 20.4099 9.7643 21.4627C9.06239 22.5078 8.09532 23.3813 6.94107 23.974C4.37522 25.2842 2.85442 27.8969 2.85442 30.6499C2.85442 31.422 2.9714 32.2019 3.22097 32.9662C3.47054 33.7227 3.58752 34.5026 3.58752 35.2825C3.58752 37.0373 2.9714 38.7686 1.79376 40.1413C0.60052 41.5451 0 43.2764 0 45.0078C0 46.7392 0.592721 48.4705 1.79376 49.8666C2.9714 51.2392 3.58752 52.9705 3.58752 54.7331C3.58752 55.513 3.47054 56.2851 3.22097 57.0494C2.9714 57.8137 2.85442 58.5936 2.85442 59.3657C2.85442 62.1187 4.37522 64.7314 6.94107 66.0416C8.09532 66.6265 9.06239 67.5 9.7643 68.5529C10.4584 69.5979 10.9029 70.8302 11.0043 72.1248C11.1525 73.9653 11.948 75.6109 13.1802 76.8354C14.4047 78.0598 16.0503 78.8631 17.883 79.0113C19.1776 79.1127 20.4021 79.5494 21.4549 80.2513C22.5078 80.9532 23.3735 81.9203 23.9662 83.0745C25.2764 85.6404 27.8891 87.1612 30.6421 87.1612C31.4142 87.1612 32.1941 87.0442 32.9584 86.7946C33.7149 86.5451 34.4948 86.4281 35.2747 86.4281C37.0295 86.4281 38.7608 87.0442 40.1334 88.2218C41.5373 89.4151 43.2686 90.0156 44.9922 90.0156C46.7158 90.0156 48.4549 89.4229 49.8509 88.2218C51.2314 87.0442 52.9549 86.4281 54.7097 86.4281C55.4896 86.4281 56.2617 86.5451 57.026 86.7946C57.7903 87.0442 58.5702 87.1612 59.3423 87.1612C62.0953 87.1612 64.708 85.6404 66.0182 83.0745C66.6109 81.9203 67.4766 80.9532 68.5295 80.2513C69.5823 79.5572 70.8068 79.1127 72.1014 79.0113C73.9341 78.8631 75.5875 78.0676 76.812 76.8354C78.0364 75.6109 78.8397 73.9653 78.9801 72.1248C79.0893 70.8302 79.5182 69.5979 80.2201 68.5529C80.922 67.5078 81.8813 66.6343 83.0433 66.0416C85.6092 64.7314 87.13 62.1187 87.13 59.3657C87.13 58.5936 87.013 57.8215 86.7634 57.0572C86.5139 56.3007 86.3969 55.513 86.3969 54.7409C86.3969 52.9861 87.013 51.2548 88.1906 49.8744C89.3839 48.4705 89.9844 46.7392 89.9844 45.0156V45ZM44.9844 84.2132C23.3579 84.2132 5.77123 66.6187 5.77123 45C5.77123 23.3813 23.3579 5.77903 44.9844 5.77903C66.6109 5.77903 84.1976 23.3735 84.1976 44.9922C84.1976 66.6109 66.6031 84.2054 44.9844 84.2054V84.2132Z" fill="white"/>
<path d="M51.1801 67.369C39.7106 70.4422 27.9213 63.6357 24.8481 52.1662C21.7748 40.6967 28.5814 28.9074 40.0509 25.8342C51.5204 22.7609 63.3097 29.5674 66.3829 41.037C69.4562 52.5065 62.6496 64.2957 51.1801 67.369Z" fill="white"/>
<path d="M22.2527 50.8231C22.2521 50.9097 22.2345 50.9825 22.1999 51.0415C22.1654 51.1005 22.131 51.1345 22.0967 51.1434L22.0454 51.1567C21.792 50.8793 21.3885 50.7387 20.8348 50.7351C20.3608 50.7319 20.0301 50.773 19.8427 50.8584C19.7193 50.9168 19.6357 50.9709 19.5921 51.0208C19.5462 51.0729 19.5118 51.0989 19.4891 51.0987C19.4686 51.0986 19.4459 51.0859 19.421 51.0607C19.3961 51.0354 19.3621 51.0044 19.319 50.9677C19.2737 50.9287 19.2102 50.8906 19.1284 50.8536C18.9353 50.7658 18.6416 50.7205 18.2474 50.7179C17.9831 50.7162 17.7745 50.7285 17.6217 50.7548C17.4666 50.7788 17.3387 50.8201 17.238 50.8787C17.1374 50.9373 17.0389 51.0187 16.9425 51.1228C16.8582 51.1223 16.7982 51.0592 16.7626 50.9337C16.7492 50.8812 16.7429 50.8116 16.7434 50.725C16.744 50.6384 16.7731 50.5452 16.8307 50.4453C16.8884 50.3432 16.9458 50.2695 17.0031 50.2243L17.089 50.1565C16.8625 49.9545 16.7511 49.5709 16.7548 49.0058C16.7577 48.5752 16.8601 48.2534 17.062 48.0406C17.3191 47.7665 17.7164 47.6313 18.2542 47.6349C18.8626 47.6389 19.2619 47.5527 19.4522 47.3762C19.4958 47.3355 19.5379 47.3358 19.5787 47.3771C19.6013 47.3977 19.6353 47.423 19.6807 47.4529C19.7261 47.4806 19.7874 47.5095 19.8647 47.5396C20.0465 47.6115 20.3721 47.6489 20.8415 47.652C21.3086 47.6551 21.6633 47.7783 21.9055 48.0214C22.1477 48.2623 22.2675 48.5935 22.2647 49.015C22.2609 49.5778 22.1273 49.9689 21.8638 50.1882C22.0249 50.2872 22.1414 50.4213 22.2132 50.5904C22.2401 50.6589 22.2532 50.7365 22.2527 50.8231ZM21.6343 49.233C21.6353 49.0781 21.6121 48.9788 21.5645 48.9352C21.5169 48.8893 21.4773 48.8583 21.4455 48.8421C21.4114 48.8237 21.3591 48.8096 21.2885 48.8001C21.2384 48.7952 21.1792 48.7914 21.1109 48.7886C21.0403 48.7836 20.9605 48.7808 20.8717 48.7802L20.8272 48.7799C20.2872 48.7763 19.9303 48.8172 19.7566 48.9027C19.7246 48.9184 19.696 48.9342 19.6708 48.95C19.6456 48.9635 19.6216 48.977 19.5987 48.9905C19.5576 49.0176 19.5244 49.031 19.4994 49.0309C19.4766 49.0307 19.4527 49.0214 19.4278 49.003C19.4028 48.9847 19.3665 48.9628 19.3188 48.9374C19.2711 48.912 19.2029 48.8865 19.1142 48.8608C18.8982 48.7979 18.5042 48.7645 17.9323 48.7607C17.5814 48.7584 17.405 48.8962 17.4031 49.1742C17.4015 49.418 17.4814 49.5667 17.6429 49.6201C17.6952 49.6364 17.7771 49.6472 17.8888 49.6525C18.0004 49.6578 18.1223 49.6598 18.2544 49.6584C18.3844 49.6547 18.5074 49.6487 18.6237 49.6403C18.7377 49.6297 18.8255 49.62 18.8871 49.6113C19.0422 49.5873 19.154 49.5629 19.2225 49.5383C19.2888 49.5137 19.3437 49.4867 19.3871 49.4574C19.4375 49.4235 19.4752 49.4067 19.5003 49.4069C19.5253 49.407 19.5606 49.4221 19.6059 49.452C19.6491 49.4796 19.7001 49.5084 19.7592 49.5385C19.9363 49.6262 20.3006 49.6719 20.852 49.6756C21.1938 49.6779 21.4082 49.6451 21.4953 49.5773C21.5869 49.5027 21.6333 49.388 21.6343 49.233Z" fill="white"/>
<path d="M21.9094 45.2703C21.8843 45.3721 21.8483 45.4512 21.8015 45.5077C21.7552 45.562 21.7119 45.59 21.6715 45.5918L21.6177 45.5961C21.5111 45.4101 21.3767 45.2654 21.2145 45.1619C21.1048 45.0926 20.9729 45.033 20.8186 44.9831C20.6642 44.9332 20.5088 44.8925 20.3523 44.8608C20.1942 44.8264 20.0587 44.8047 19.946 44.7956C19.7879 44.78 19.6569 44.7875 19.5531 44.8182C19.4493 44.8489 19.3653 44.8798 19.3013 44.9109C19.2373 44.942 19.1854 44.9527 19.1456 44.9428C19.1279 44.9384 19.1099 44.9211 19.0915 44.8907C19.0754 44.8609 19.0507 44.8231 19.0175 44.7774C18.9847 44.7294 18.9351 44.6784 18.8687 44.6244C18.708 44.4955 18.4375 44.384 18.057 44.29C17.8026 44.2271 17.5947 44.1898 17.4333 44.1781C17.2725 44.1642 17.134 44.1734 17.0181 44.2058C16.9021 44.2381 16.784 44.2934 16.6637 44.3717C16.5863 44.3525 16.543 44.2761 16.5338 44.1424C16.532 44.0927 16.539 44.0357 16.5549 43.9716C16.6106 43.7459 16.773 43.5877 17.0419 43.4969C16.8533 43.2625 16.785 43.0403 16.837 42.8301C16.8621 42.7284 16.8981 42.6539 16.945 42.6068C16.9918 42.5597 17.0321 42.5345 17.0658 42.5311L17.1189 42.5301C17.2255 42.7161 17.3566 42.86 17.5121 42.9618C17.666 43.0608 17.8945 43.1478 18.1976 43.2227L18.3004 43.2482C18.6743 43.3406 18.9081 43.3725 19.002 43.3441C19.0854 43.3201 19.1398 43.2948 19.1651 43.2682C19.1882 43.2411 19.2106 43.2126 19.232 43.1827C19.2678 43.1328 19.3024 43.0451 19.3358 42.9196C19.3669 42.7935 19.371 42.6772 19.3481 42.5706C19.3419 42.5291 19.3191 42.4883 19.2798 42.448C19.2416 42.4128 19.2067 42.383 19.1751 42.3588C19.1413 42.334 19.0865 42.3087 19.0108 42.283C18.9543 42.2643 18.8877 42.2443 18.8108 42.223C18.7339 42.2016 18.6457 42.1787 18.5462 42.1541L18.4665 42.1344C18.1635 42.0595 17.9205 42.0311 17.7376 42.0493C17.5531 42.0647 17.3703 42.1299 17.1894 42.2448C17.112 42.2256 17.0689 42.1481 17.0603 42.0122C17.0585 41.9624 17.0652 41.9066 17.0805 41.8446C17.1369 41.6168 17.3008 41.4519 17.5725 41.3501C17.5531 41.3336 17.5245 41.2972 17.4868 41.2409C17.4468 41.1841 17.4163 41.1319 17.3952 41.0845C17.3434 40.952 17.3315 40.8293 17.3594 40.7165C17.3856 40.6103 17.4227 40.5314 17.4706 40.4799C17.5169 40.4256 17.5577 40.3982 17.5931 40.3975L17.6462 40.3966C17.7544 40.5853 17.8847 40.7278 18.0369 40.8241C18.1421 40.8923 18.2738 40.9531 18.432 41.0062C18.5902 41.0594 18.7498 41.1024 18.9107 41.1351C19.0721 41.1656 19.2123 41.1873 19.3312 41.2003C19.508 41.2158 19.6448 41.2086 19.7414 41.1785C19.8364 41.1456 19.9101 41.1134 19.9625 41.0817C20.0133 41.0473 20.0619 41.0358 20.1083 41.0473C20.1305 41.0528 20.1507 41.0707 20.169 41.1011C20.1873 41.1314 20.2162 41.1714 20.2555 41.221C20.2932 41.2679 20.3464 41.3186 20.4151 41.3731C20.5868 41.5048 20.8518 41.6148 21.2102 41.7034C21.4535 41.7636 21.6556 41.8006 21.8164 41.8145C21.9778 41.8263 22.1187 41.8165 22.2391 41.7852C22.3579 41.7512 22.4782 41.6964 22.6001 41.6209C22.6842 41.6417 22.7289 41.7173 22.7342 41.8477C22.7355 41.8997 22.7257 41.9677 22.7049 42.0517C22.6836 42.138 22.6291 42.2208 22.5414 42.3C22.4543 42.3771 22.3749 42.4279 22.3031 42.4524L22.1913 42.4916C22.3271 42.6261 22.4095 42.7815 22.4388 42.9577C22.45 43.0262 22.4452 43.1025 22.4244 43.1865C22.4042 43.2684 22.3701 43.3351 22.3222 43.3866C22.2742 43.4381 22.2323 43.4653 22.1964 43.4682L22.1433 43.4691C22.0367 43.2832 21.9021 43.1396 21.7393 43.0383C21.5771 42.9349 21.3953 42.8582 21.194 42.8085L20.8125 42.7142L20.625 42.6749C20.5515 42.6591 20.4948 42.6509 20.455 42.6505C20.4158 42.6478 20.3693 42.6457 20.3157 42.6442C20.2361 42.6433 20.1696 42.6609 20.1161 42.697C20.0609 42.7303 20.0237 42.7622 20.0044 42.7926C19.9378 42.8912 19.8933 42.9999 19.871 43.1188C19.8487 43.2376 19.8497 43.3283 19.8742 43.3907C19.906 43.4807 19.9556 43.5504 20.0232 43.6C20.0885 43.649 20.1887 43.6949 20.3236 43.7376C20.437 43.7727 20.6176 43.8208 20.8653 43.8821C21.1109 43.9428 21.3281 43.9659 21.5171 43.9516C21.7066 43.9351 21.8919 43.8694 22.0728 43.7545C22.1525 43.7742 22.1969 43.8509 22.2061 43.9846C22.2079 44.0343 22.1984 44.1012 22.1776 44.1853C22.1563 44.2716 22.1015 44.3554 22.0133 44.4369C21.9256 44.5162 21.8457 44.5692 21.7733 44.5959L21.6607 44.6385C21.6806 44.6528 21.7128 44.6889 21.7572 44.7468C21.8015 44.8047 21.8354 44.8577 21.8587 44.9057C21.9204 45.036 21.9373 45.1575 21.9094 45.2703Z" fill="white"/>
<path d="M24.1875 37.37C24.1076 37.5263 23.998 37.6353 23.8589 37.6972C23.7197 37.7592 23.5703 37.7787 23.4105 37.7559C23.2476 37.734 23.0788 37.6937 22.9041 37.6351C22.7019 37.5701 22.5297 37.5063 22.3876 37.4439C22.2445 37.3784 22.0861 37.3153 21.9124 37.2546C21.5832 37.1426 21.3771 37.1677 21.2941 37.33L21.0856 37.7378L22.029 38.2202C22.2278 38.3219 22.4003 38.3974 22.5466 38.4466C22.692 38.4928 22.8268 38.5169 22.9511 38.5191C23.0754 38.5212 23.206 38.5035 23.3429 38.466C23.42 38.5055 23.4462 38.5893 23.4216 38.7175C23.4025 38.8049 23.363 38.8871 23.3032 38.964C23.2434 39.0409 23.1715 39.0989 23.0876 39.1379C22.9791 39.1899 22.8775 39.2185 22.7826 39.2237C22.7977 39.2443 22.8182 39.2867 22.8442 39.3512C22.8691 39.4126 22.8864 39.4688 22.8961 39.5198C22.9183 39.6566 22.904 39.7746 22.8532 39.8741C22.8065 39.9653 22.7544 40.0321 22.697 40.0744C22.6395 40.1167 22.5909 40.1341 22.5513 40.1266L22.4994 40.1154C22.4491 39.9336 22.3507 39.7681 22.2043 39.619C22.0589 39.4679 21.8833 39.3358 21.6775 39.2229C21.4706 39.1069 21.2529 39.0122 21.0243 38.9388C20.8708 38.8884 20.7431 38.8679 20.6411 38.8772C20.5381 38.8834 20.455 38.8959 20.3916 38.9147C20.3262 38.9324 20.2763 38.9325 20.2418 38.9148C20.2236 38.9055 20.209 38.884 20.1981 38.8502C20.1872 38.8165 20.1707 38.7736 20.1488 38.7214C20.1259 38.6661 20.0862 38.6036 20.0297 38.5338C19.8967 38.3685 19.6547 38.1961 19.3037 38.0167C19.0684 37.8963 18.8766 37.8136 18.7282 37.7684C18.5788 37.7201 18.446 37.6996 18.3298 37.7067C18.2135 37.7138 18.0889 37.7422 17.956 37.7919C17.8809 37.7536 17.8557 37.6703 17.8803 37.5421C17.8974 37.4587 17.9384 37.3709 18.0035 37.2788C18.0685 37.1866 18.1482 37.1135 18.2424 37.0593C18.3479 36.9981 18.4512 36.9562 18.5523 36.9337C18.4928 36.87 18.4632 36.7652 18.4635 36.6195C18.4627 36.4809 18.494 36.337 18.5576 36.1878C18.6201 36.0355 18.6917 35.8955 18.7723 35.7678C18.8509 35.6391 18.915 35.5413 18.9645 35.4745C19.1461 35.2347 19.3456 35.0923 19.563 35.0474C19.7244 35.0121 19.8736 35.0206 20.0107 35.0728C20.1285 35.1177 20.2291 35.1461 20.3126 35.1581C20.3951 35.167 20.4608 35.1661 20.5098 35.1553C20.6171 35.1257 20.6758 35.1135 20.6859 35.1187C20.6981 35.1249 20.7117 35.1459 20.7266 35.1817C20.7406 35.2145 20.7586 35.2518 20.7807 35.2938C20.8408 35.4065 20.9468 35.5119 21.0988 35.6101C21.2498 35.7052 21.3542 35.8239 21.412 35.966C21.4708 36.1062 21.4726 36.2453 21.4174 36.3834C21.6179 36.1865 21.8677 36.1159 22.1668 36.1716C22.3377 36.2078 22.5607 36.2796 22.8359 36.3871C22.975 36.4403 23.0964 36.4858 23.2 36.5234C23.3036 36.561 23.391 36.5904 23.4621 36.6114C23.7782 36.7039 24.0485 36.6835 24.2729 36.55C24.3612 36.8127 24.3327 37.086 24.1875 37.37ZM20.6109 37.495C20.7333 37.2556 20.7972 37.0657 20.8025 36.9251C20.8059 36.7834 20.7477 36.682 20.628 36.6208L19.5964 36.0932C19.5436 36.0663 19.4799 36.0708 19.4052 36.1068C19.3304 36.1428 19.2713 36.2034 19.2277 36.2886C19.1831 36.3759 19.1542 36.4724 19.141 36.5783C19.1289 36.6821 19.141 36.7434 19.1776 36.762L20.6109 37.495Z" fill="white"/>
<path d="M25.1842 35.0918C25.0909 35.224 25.0096 35.2977 24.9403 35.3129C24.876 35.3289 24.8233 35.3266 24.7821 35.3059C24.7419 35.0823 24.6637 34.8947 24.5476 34.743C24.4945 34.6721 24.4146 34.5878 24.3078 34.4901C24.1991 34.3912 24.0734 34.2927 23.9306 34.1947C23.7872 34.0935 23.6379 34.0049 23.4825 33.9287C23.3321 33.8533 23.2058 33.8129 23.1035 33.8077C22.9994 33.8011 22.9165 33.804 22.8548 33.8163C22.7926 33.8254 22.7466 33.8194 22.7168 33.7984C22.7019 33.7879 22.6915 33.7652 22.6854 33.7302C22.6813 33.6966 22.672 33.6524 22.6577 33.5977C22.6446 33.5411 22.617 33.4755 22.5747 33.4011C22.4719 33.2226 22.2595 33.0197 21.9374 32.7925C21.7214 32.6401 21.542 32.5288 21.3991 32.4586C21.2562 32.3885 21.1251 32.3489 21.0058 32.3401C20.886 32.3281 20.755 32.336 20.6126 32.3638C20.5437 32.3152 20.5305 32.2292 20.573 32.1058C20.592 32.0551 20.6193 32.0046 20.6547 31.9543C20.7835 31.7719 20.9896 31.6872 21.2731 31.7004C21.2591 31.6571 21.2455 31.6112 21.2322 31.5628C21.2171 31.5131 21.2079 31.455 21.2046 31.3885C21.1993 31.2537 21.2295 31.1398 21.2952 31.0467C21.3543 30.9629 21.4159 30.9032 21.4801 30.8676C21.5443 30.832 21.5939 30.821 21.6289 30.8346L21.6787 30.853C21.7133 31.0726 21.7822 31.2537 21.8853 31.3961C21.9566 31.4966 22.0525 31.5978 22.1731 31.6996C22.295 31.7996 22.4203 31.8908 22.549 31.9732C22.6776 32.0556 22.789 32.1231 22.8831 32.1755C23.0545 32.2686 23.1996 32.3277 23.3184 32.353C23.4385 32.3764 23.5257 32.3793 23.5799 32.3618C23.6468 32.3421 23.6934 32.3373 23.7197 32.3475C23.7454 32.3545 23.7612 32.3796 23.767 32.4227C23.7712 32.4563 23.7814 32.5012 23.7976 32.5572C23.8138 32.6133 23.8421 32.6779 23.8825 32.751C23.9784 32.9274 24.1827 33.126 24.4955 33.3467C24.704 33.4938 24.8816 33.6038 25.0282 33.6766C25.1749 33.7494 25.3109 33.7938 25.4363 33.8097C25.563 33.8238 25.7003 33.8189 25.8482 33.795C25.9153 33.8423 25.9287 33.9299 25.8887 34.0578C25.8723 34.1048 25.8397 34.1628 25.7911 34.2316C25.7425 34.3005 25.6636 34.355 25.5545 34.3951C25.4466 34.4334 25.3548 34.4508 25.279 34.4476L25.1606 34.4435C25.174 34.4641 25.1908 34.5094 25.211 34.5795C25.2313 34.6496 25.2436 34.7112 25.2479 34.7644C25.2606 34.9045 25.2394 35.0136 25.1842 35.0918Z" fill="white"/>
<path d="M28.0378 31.1534C27.9774 31.2123 27.8908 31.2507 27.7777 31.2687C27.6664 31.2851 27.5737 31.2847 27.4998 31.2677L27.389 31.2374C27.4563 31.3977 27.4543 31.5637 27.3829 31.7352C27.3432 31.825 27.2835 31.9008 27.2037 31.9627C27.1273 32.0246 27.0624 32.056 27.0092 32.057C26.9431 32.061 26.8917 32.0491 26.855 32.0213C26.8624 31.8071 26.8245 31.6132 26.7412 31.4398C26.6846 31.3231 26.6023 31.2013 26.4942 31.0743C26.3862 30.944 26.2725 30.8226 26.153 30.71C26.0335 30.5974 25.9267 30.5058 25.8325 30.4354C25.6952 30.3306 25.5783 30.268 25.4818 30.2474C25.387 30.2253 25.309 30.2155 25.2478 30.218C25.1849 30.2189 25.1368 30.2022 25.1033 30.1679C25.0906 30.1549 25.0845 30.1306 25.0849 30.0952C25.0869 30.0614 25.085 30.0154 25.0793 29.9574C25.0752 29.8977 25.0583 29.8266 25.0287 29.744C24.9602 29.5498 24.7986 29.3223 24.5439 29.0614C24.2893 28.8005 24.1299 28.6568 24.0657 28.6302C24.0594 28.6237 23.9844 28.6904 23.8409 28.8305C23.6974 28.9706 23.6131 29.0799 23.588 29.1586C23.5613 29.2356 23.5545 29.3266 23.5678 29.4314C23.4866 29.4788 23.4015 29.4568 23.3124 29.3655C23.2232 29.2742 23.1869 29.1456 23.2034 28.9799C23.1082 28.9932 23.0205 28.9817 22.9404 28.9453C22.8619 28.9073 22.8045 28.8566 22.7682 28.7933C22.7303 28.7284 22.7279 28.6655 22.7608 28.6047C22.9644 28.5588 23.1306 28.473 23.2594 28.3473C23.3116 28.2964 23.361 28.2099 23.4076 28.088C23.4558 27.9646 23.5003 27.8829 23.5411 27.8431C23.6455 27.7413 23.802 27.719 24.0108 27.7763C23.9553 27.5694 23.9798 27.415 24.0841 27.3131C24.1281 27.2702 24.2117 27.2269 24.3346 27.1832C24.4593 27.138 24.546 27.0915 24.595 27.0438C24.7189 26.9228 24.8087 26.7587 24.8644 26.5515C24.9035 26.5133 24.9623 26.5165 25.0407 26.5609C25.0663 26.5741 25.0982 26.6003 25.1364 26.6394C25.1715 26.6753 25.1974 26.7264 25.2144 26.7927C25.2389 26.8929 25.2421 26.9646 25.2238 27.0079C25.3418 26.9819 25.4463 27.0025 25.5373 27.0697C25.63 27.1353 25.6823 27.2036 25.6943 27.2746C25.6988 27.3085 25.6911 27.3431 25.6713 27.3783C25.4604 27.3612 25.2678 27.4379 25.0933 27.6082L24.8509 27.8638C24.8504 27.9025 24.9457 28.0197 25.1367 28.2154C25.3229 28.4061 25.4847 28.5539 25.622 28.6587C25.7561 28.7603 25.8721 28.8237 25.9701 28.8491C26.0697 28.8728 26.1518 28.8851 26.2162 28.8859C26.2807 28.8867 26.3288 28.9034 26.3606 28.936C26.4004 28.9767 26.4149 29.0438 26.4041 29.1371C26.3934 29.2272 26.4155 29.3298 26.4705 29.4449C26.5537 29.6215 26.7203 29.8379 26.9702 30.0939C27.1357 30.2635 27.2824 30.3958 27.4101 30.4908C27.5379 30.5826 27.6612 30.6469 27.78 30.6838C27.8988 30.7175 28.03 30.7344 28.1734 30.7345C28.2307 30.7932 28.228 30.8818 28.1653 31.0003C28.1406 31.0435 28.0981 31.0945 28.0378 31.1534Z" fill="white"/>
<path d="M29.9163 29.1753C29.7857 29.2709 29.6852 29.3148 29.6146 29.3072C29.5486 29.3019 29.4994 29.2828 29.4669 29.2501C29.5001 29.0254 29.4858 28.8226 29.424 28.6419C29.3963 28.5577 29.3474 28.4523 29.2773 28.3257C29.2058 28.1973 29.118 28.0639 29.0139 27.9255C28.9102 27.7839 28.7969 27.6523 28.6739 27.5305C28.5554 27.4111 28.4485 27.3327 28.3532 27.2951C28.2566 27.2557 28.1771 27.232 28.1147 27.224C28.0529 27.2128 28.0112 27.1925 27.9896 27.1631C27.9789 27.1484 27.9762 27.1235 27.9816 27.0885C27.9884 27.0553 27.9937 27.0105 27.9975 26.954C28.0032 26.8962 27.9979 26.8252 27.9815 26.7412C27.941 26.5393 27.8043 26.2793 27.5714 25.9612C27.4152 25.748 27.2806 25.5853 27.1675 25.4733C27.0544 25.3612 26.9427 25.282 26.8325 25.2356C26.7228 25.186 26.596 25.1518 26.4522 25.1328C26.4024 25.0648 26.4173 24.979 26.4969 24.8756C26.5311 24.8336 26.573 24.7944 26.6226 24.7581C26.8028 24.6261 27.0252 24.6116 27.2897 24.7145C27.2902 24.6689 27.2919 24.6211 27.2948 24.571C27.2963 24.519 27.3061 24.461 27.3241 24.397C27.3621 24.2675 27.427 24.1691 27.5189 24.1018C27.6016 24.0412 27.6791 24.0043 27.7513 23.991C27.8234 23.9777 27.8739 23.9831 27.9028 24.0071L27.9442 24.0404C27.907 24.2596 27.9146 24.4532 27.9669 24.6211C28.0024 24.7391 28.0612 24.8655 28.143 25.0005C28.2267 25.134 28.3164 25.2604 28.4121 25.3795C28.5078 25.4987 28.5919 25.5981 28.6644 25.6778C28.7972 25.8206 28.9159 25.9229 29.0204 25.9847C29.1268 26.0452 29.2085 26.0757 29.2655 26.0764C29.3352 26.079 29.3809 26.0893 29.4026 26.1074C29.4247 26.1222 29.4317 26.151 29.4234 26.1938C29.4167 26.2269 29.412 26.2727 29.4096 26.331C29.4071 26.3893 29.4133 26.4596 29.4283 26.5418C29.463 26.7395 29.5934 26.9928 29.8195 27.3017C29.9703 27.5076 30.1036 27.6684 30.2194 27.7841C30.3352 27.8999 30.45 27.9853 30.5637 28.0404C30.6793 28.0941 30.8111 28.1332 30.9589 28.1577C31.0074 28.2239 30.9922 28.3112 30.9135 28.4197C30.883 28.459 30.8337 28.5036 30.7657 28.5534C30.6976 28.6032 30.6055 28.6297 30.4892 28.6329C30.3748 28.6348 30.2822 28.6221 30.2114 28.5949L30.1005 28.5532C30.1066 28.577 30.1081 28.6253 30.105 28.6982C30.1019 28.7711 30.0938 28.8335 30.0809 28.8853C30.0484 29.0221 29.9935 29.1188 29.9163 29.1753Z" fill="white"/>
<path d="M30.6196 24.7821L30.455 24.5062C30.5902 24.3725 30.6701 24.2373 30.6947 24.1006C30.72 23.9608 30.6808 23.8038 30.5769 23.6296L30.571 23.6331C30.5204 23.7084 30.4247 23.788 30.2837 23.8721C30.0655 23.782 29.8957 23.6352 29.7743 23.4317C29.7683 23.3504 29.789 23.2651 29.8366 23.1757C29.8864 23.0903 29.9681 23.0137 30.0816 22.946C30.1951 22.8783 30.3349 22.8413 30.501 22.8351C30.6706 22.9993 30.8242 23.1969 30.9619 23.4278C31.0997 23.6587 31.1399 23.8974 31.0826 24.1438C31.0241 24.3883 30.8698 24.6011 30.6196 24.7821Z" fill="white"/>
<path d="M35.4848 25.6211C35.091 25.765 34.7134 25.7842 34.3521 25.6785C34.1776 25.6259 34.0189 25.5335 33.876 25.4013C33.7344 25.2663 33.6366 25.1249 33.5826 24.9772C33.538 24.8553 33.5128 24.7432 33.507 24.641C33.5025 24.5358 33.4993 24.4375 33.4974 24.346C33.4947 24.2524 33.4774 24.1617 33.4453 24.074C33.4132 23.9862 33.3428 23.9064 33.234 23.8346C33.254 23.803 33.2897 23.7778 33.3411 23.7591C33.431 23.7262 33.5247 23.7271 33.6223 23.7618C33.722 23.7957 33.8123 23.85 33.893 23.9249C33.9758 23.9989 34.0341 24.0819 34.0677 24.1739C34.2053 24.0193 34.3436 23.9263 34.4825 23.8949C34.6236 23.8628 34.7225 23.8678 34.7792 23.9102C34.8352 23.9504 34.8706 23.9908 34.8854 24.0315L34.8948 24.0572C34.7762 24.1175 34.6862 24.2099 34.6249 24.3342C34.5649 24.4556 34.56 24.5847 34.6101 24.7217C34.6602 24.8587 34.7412 24.9443 34.8532 24.9785C34.9652 25.0128 35.0886 25.0053 35.2234 24.956C35.3561 24.9075 35.4632 24.8089 35.5447 24.6602C35.6255 24.5094 35.6306 24.3377 35.5602 24.1451C35.4577 23.8647 35.304 23.6601 35.0992 23.5312C34.8936 23.4001 34.6752 23.3768 34.4441 23.4613C34.382 23.484 34.316 23.5191 34.246 23.5665C34.176 23.614 34.1356 23.6396 34.1249 23.6435L34.0969 23.6465C34.0724 23.6458 34.0418 23.6218 34.0051 23.5745C33.897 23.4248 33.7603 23.3231 33.5952 23.2695C33.063 23.088 32.6964 22.7223 32.4953 22.1722C32.3333 21.7292 32.353 21.3351 32.5543 20.9898C32.7577 20.6437 33.1162 20.3767 33.6298 20.189C33.8545 20.1068 34.0671 20.0776 34.2675 20.1014C34.47 20.1244 34.6321 20.1598 34.7538 20.2075C35.0295 20.3177 35.2217 20.5216 35.3305 20.8191C35.3665 20.9176 35.3889 21.0586 35.3978 21.2421C35.4059 21.4235 35.4166 21.5325 35.4299 21.5688C35.476 21.6951 35.5745 21.7986 35.7254 21.8793C35.6821 21.8806 35.6252 21.8941 35.5546 21.9199C35.484 21.9457 35.4099 21.9522 35.3324 21.9393C35.257 21.9256 35.1914 21.8986 35.1354 21.8584C35.0318 21.7872 34.9375 21.6918 34.8526 21.5725C34.8462 21.6015 34.8006 21.646 34.7158 21.7061C34.6303 21.7641 34.5554 21.8048 34.4912 21.8283C34.305 21.8964 34.1748 21.8821 34.1007 21.7855C34.074 21.7588 34.0548 21.7295 34.043 21.6974C34.1734 21.6425 34.2764 21.566 34.3522 21.4679C34.4293 21.3669 34.4428 21.248 34.3927 21.111C34.3419 20.9719 34.261 20.8801 34.1502 20.8357C34.0407 20.7884 33.9346 20.7836 33.8318 20.8211C33.4958 20.944 33.4014 21.2065 33.5485 21.6089C33.6729 21.9492 33.8523 22.1711 34.0867 22.2746C34.202 22.3247 34.3054 22.3354 34.3968 22.3068C34.4904 22.2774 34.5881 22.226 34.6897 22.1524C34.778 22.0886 34.8329 22.0528 34.8543 22.0449C34.8692 22.0395 34.8965 22.061 34.9361 22.1096C35.0743 22.2751 35.2036 22.3733 35.3242 22.4045C35.6138 22.4733 35.8713 22.6036 36.0966 22.7953C36.322 22.9871 36.4848 23.2199 36.5849 23.4939C36.6851 23.7678 36.7218 24.0176 36.6951 24.2433C36.6685 24.469 36.5975 24.6696 36.4821 24.8452C36.2452 25.206 35.9128 25.4646 35.4848 25.6211Z" fill="white"/>
<path d="M40.6295 23.559C40.4499 23.5715 40.3241 23.5369 40.2522 23.4551L40.215 23.4131C40.3497 23.2804 40.4425 23.1049 40.4936 22.8867C40.527 22.7427 40.5446 22.5862 40.5466 22.417C40.5483 22.2456 40.5402 22.0794 40.5221 21.9185C40.5041 21.7576 40.4821 21.622 40.4561 21.5119C40.4201 21.3546 40.3717 21.2346 40.3112 21.152C40.2527 21.067 40.1991 21.0022 40.1503 20.9576C40.1014 20.9108 40.0755 20.868 40.0728 20.8294C40.0716 20.8112 40.0826 20.7887 40.1058 20.762C40.1293 20.7375 40.1577 20.7024 40.191 20.6567C40.2265 20.6085 40.2597 20.5446 40.2907 20.4647C40.3641 20.2723 40.3872 19.9806 40.36 19.5896C40.3416 19.326 40.3134 19.1166 40.2752 18.9617C40.2391 18.8043 40.1879 18.6765 40.1217 18.5784C40.0553 18.4779 39.9665 18.3825 39.8551 18.292C39.8494 18.2102 39.9088 18.1455 40.0334 18.098C40.0802 18.081 40.1491 18.0694 40.24 18.063C40.3309 18.0567 40.4307 18.0795 40.5394 18.1313C40.6504 18.1829 40.7318 18.2367 40.7836 18.2924L40.8612 18.3727C41.0313 18.1256 41.38 17.9837 41.9074 17.947C42.262 17.9223 42.5606 17.9632 42.8033 18.0696C43.0648 18.1839 43.2056 18.3854 43.2257 18.6741C43.2382 18.8536 43.3043 18.9987 43.4239 19.1091C43.5415 19.2243 43.6007 19.2875 43.6015 19.2989C43.6025 19.3125 43.588 19.3341 43.5581 19.3636C43.5303 19.3906 43.4994 19.4236 43.4656 19.4625C43.3722 19.565 43.3325 19.7162 43.3464 19.9162C43.3605 20.1185 43.2933 20.3014 43.1448 20.4648C43.0643 20.5549 42.9698 20.6083 42.8613 20.625C42.9735 20.6286 43.0748 20.6729 43.1652 20.758C43.3359 20.9129 43.4271 21.0744 43.4388 21.2426C43.447 21.3608 43.5325 21.5056 43.6951 21.677C43.7468 21.7305 43.7732 21.7641 43.7741 21.7777C43.7749 21.7891 43.7536 21.8271 43.7101 21.8918C43.5731 22.0887 43.5116 22.2883 43.5257 22.4906C43.5397 22.6929 43.4898 22.862 43.3759 22.9978C43.1589 23.2596 42.7969 23.4081 42.29 23.4434C42.0536 23.4599 41.8415 23.4484 41.6538 23.4089C41.466 23.3695 41.3121 23.2751 41.1921 23.1259C41.1802 23.1518 41.1501 23.195 41.1017 23.2555C41.0532 23.3137 41.0075 23.3614 40.9644 23.3987C40.8457 23.4983 40.734 23.5518 40.6295 23.559ZM41.4381 20.4088L41.7722 20.3856C42.1541 20.359 42.3494 20.1124 42.358 19.6459C42.3593 19.5658 42.3563 19.4747 42.3492 19.3724L42.3386 19.171C42.3108 18.7709 42.1525 18.5809 41.8638 18.601C41.6797 18.6138 41.563 18.6436 41.5137 18.6905C41.4599 18.7376 41.4215 18.7768 41.3986 18.8081C41.3779 18.8392 41.3646 18.8779 41.3587 18.924C41.3499 18.9954 41.3485 19.0731 41.3543 19.1572L41.4381 20.4088ZM42.1577 22.8222C42.4486 22.802 42.5781 22.5611 42.5459 22.0997L42.5276 21.8851C42.501 21.5032 42.4138 21.2512 42.2659 21.129C42.1183 21.0091 41.9001 20.9591 41.6114 20.9792L41.4786 20.9919C41.5085 21.2571 41.5292 21.4715 41.5406 21.6352C41.5542 21.7987 41.5621 21.9283 41.5642 22.0241C41.5684 22.1175 41.5714 22.1938 41.5733 22.253C41.575 22.31 41.5801 22.3668 41.5886 22.4233C41.596 22.4639 41.6098 22.5154 41.6302 22.578C41.6526 22.6381 41.6832 22.6839 41.722 22.7155C41.8192 22.8001 41.9645 22.8357 42.1577 22.8222Z" fill="white"/>
<path d="M44.8516 23.0201C44.7633 23.0098 44.6917 22.9843 44.6368 22.9435C44.5819 22.9027 44.5519 22.8648 44.5468 22.8298L44.5392 22.7773C44.6577 22.7245 44.7384 22.672 44.7812 22.6196C44.826 22.5698 44.8592 22.5312 44.8807 22.5039C44.9048 22.4746 44.9273 22.429 44.9482 22.3672L44.997 22.2146C45.0082 22.1769 45.0204 22.1118 45.0335 22.0193C45.0491 21.9248 45.0603 21.8481 45.0671 21.7892L45.1004 21.504C45.1676 20.9269 45.1016 20.5281 44.9024 20.3076C44.8594 20.2636 44.8643 20.2217 44.9171 20.182C44.9446 20.1622 44.979 20.133 45.0202 20.0942C45.0637 20.0557 45.108 20 45.1532 19.9273C45.2608 19.7517 45.3373 19.4693 45.3826 19.08C45.4129 18.8197 45.4237 18.6088 45.415 18.4472C45.4085 18.2858 45.3819 18.1497 45.3352 18.0387C45.2885 17.9277 45.2187 17.8175 45.126 17.7081C45.1354 17.6266 45.2058 17.574 45.337 17.5503C45.3861 17.5422 45.456 17.5435 45.5465 17.554C45.637 17.5646 45.7305 17.6087 45.827 17.6865C45.9257 17.7645 45.9952 17.838 46.0353 17.9069L46.0952 18.0136C46.3382 17.7781 46.5933 17.6759 46.8604 17.707C47.003 17.7236 47.1468 17.769 47.2918 17.8433C47.4394 17.9155 47.5512 18.01 47.627 18.1266C47.8153 17.9283 48.0203 17.8421 48.2421 17.8679C48.3938 17.8855 48.4771 17.948 48.4922 18.0553C48.369 18.1281 48.2773 18.2161 48.2171 18.3192C48.1592 18.4226 48.121 18.5535 48.1026 18.7119C48.0702 18.9903 48.1375 19.2103 48.3045 19.372C48.2812 19.4335 48.229 19.4687 48.1476 19.4776C48.0666 19.4842 47.9798 19.4707 47.8874 19.437C47.7975 19.4013 47.7253 19.3516 47.6708 19.2879L47.6258 19.231C47.4817 19.345 47.326 19.3923 47.1585 19.3728C47.025 19.3572 46.9497 19.3037 46.9329 19.2123C47.1107 19.0839 47.2108 18.9235 47.2332 18.7311C47.2582 18.5161 47.1485 18.3944 46.9041 18.3659C46.6596 18.3374 46.5283 18.4013 46.5102 18.5575L46.5066 18.588L46.4759 20.1226C46.7249 20.1516 46.9222 20.1608 47.068 20.1502C47.2163 20.1377 47.3491 20.1004 47.4664 20.0383C47.489 20.041 47.5074 20.0603 47.5216 20.0964C47.5383 20.1304 47.5438 20.1712 47.5383 20.2188C47.5241 20.341 47.4322 20.4404 47.2627 20.517C47.3041 20.5356 47.3424 20.571 47.3776 20.6233C47.4426 20.7158 47.4714 20.7937 47.464 20.857C47.4511 20.9679 47.4212 21.0275 47.3743 21.0359L47.3498 21.0399C47.1594 20.8824 46.8446 20.778 46.4055 20.7269L46.0826 22.1999C46.065 22.3516 46.0993 22.4508 46.1856 22.4975C46.2501 22.5349 46.3378 22.56 46.4487 22.5729C46.5551 22.5853 46.6424 22.5542 46.7107 22.4795C46.7793 22.4026 46.8208 22.3031 46.835 22.1809C46.8584 21.9794 46.7989 21.7913 46.6564 21.6164C46.6896 21.5285 46.7616 21.491 46.8725 21.5039C47.0649 21.5263 47.2041 21.5918 47.2901 21.7005L47.3351 21.7573C47.4816 21.6414 47.6387 21.5931 47.8061 21.6126C47.9374 21.6279 48.0114 21.6824 48.028 21.7761C47.8278 21.8996 47.709 22.122 47.6716 22.4434C47.6339 22.7671 47.708 23.0269 47.8939 23.2229C47.8874 23.2795 47.8347 23.3181 47.7359 23.3387C47.6939 23.3453 47.6513 23.3461 47.6083 23.3411C47.3843 23.315 47.2044 23.1851 47.0687 22.9514C46.9658 23.0472 46.8365 23.1136 46.6808 23.1505C46.5347 23.184 46.4083 23.1956 46.3016 23.1855C46.1973 23.1756 46.1132 23.159 46.0494 23.1355C45.9615 23.1023 45.8861 23.0603 45.8232 23.0094C45.76 22.9607 45.7113 22.916 45.6771 22.8753C45.6246 22.8142 45.584 22.759 45.5553 22.7098C45.4468 22.8531 45.293 22.9522 45.094 23.007C45.0206 23.026 44.9398 23.0304 44.8516 23.0201Z" fill="white"/>
<path d="M50.3709 23.7923C49.9709 23.6665 49.6599 23.4516 49.4379 23.1476C49.3316 22.9995 49.2621 22.8295 49.2293 22.6376C49.1993 22.4443 49.208 22.2726 49.2552 22.1226C49.2941 21.9987 49.3425 21.8945 49.4001 21.8099C49.4607 21.7239 49.5181 21.644 49.5723 21.5703C49.6272 21.4944 49.6687 21.4119 49.6968 21.3228C49.7248 21.2337 49.7176 21.1275 49.6752 21.0043C49.7103 20.9914 49.7539 20.9932 49.8061 21.0096C49.8973 21.0383 49.9711 21.0962 50.0274 21.1832C50.0858 21.2708 50.1242 21.3689 50.1426 21.4774C50.1632 21.5866 50.1588 21.6879 50.1293 21.7814C50.3326 21.7427 50.4989 21.7532 50.6282 21.813C50.7597 21.8735 50.835 21.9378 50.8542 22.0059C50.874 22.0719 50.8774 22.1255 50.8645 22.1668L50.8562 22.1929C50.7254 22.1684 50.5978 22.1868 50.4734 22.248C50.3519 22.3077 50.2693 22.4071 50.2255 22.5462C50.1817 22.6853 50.1938 22.8026 50.2617 22.898C50.3296 22.9934 50.432 23.0627 50.569 23.1058C50.7037 23.1482 50.8487 23.1353 51.004 23.0671C51.1599 22.9967 51.2686 22.8637 51.3302 22.6681C51.4198 22.3833 51.4227 22.1275 51.3388 21.9004C51.2557 21.6712 51.0967 21.5197 50.862 21.4458C50.799 21.426 50.7252 21.4135 50.6408 21.4085C50.5564 21.4034 50.5088 21.3992 50.4979 21.3957L50.4739 21.381C50.4549 21.3655 50.4453 21.3278 50.445 21.268C50.4505 21.0834 50.4041 20.9195 50.3059 20.7763C49.9946 20.3081 49.9268 19.7947 50.1026 19.2361C50.2441 18.7861 50.5 18.4856 50.87 18.3345C51.2422 18.1841 51.6891 18.191 52.2108 18.3551C52.439 18.4269 52.6253 18.5333 52.7697 18.6743C52.9162 18.816 53.0232 18.9428 53.0907 19.0548C53.242 19.3102 53.2701 19.589 53.1751 19.8912C53.1436 19.9911 53.0754 20.1166 52.9706 20.2676C52.8665 20.4163 52.8086 20.5092 52.797 20.5462C52.7566 20.6744 52.7716 20.8165 52.842 20.9724C52.807 20.947 52.7536 20.9231 52.6819 20.9005C52.6101 20.8779 52.5475 20.8379 52.4939 20.7804C52.4425 20.7237 52.4069 20.6623 52.387 20.5963C52.3482 20.4766 52.3316 20.3436 52.337 20.1972C52.3143 20.2163 52.251 20.2239 52.1472 20.2199C52.044 20.2137 51.9598 20.2003 51.8946 20.1798C51.7055 20.1203 51.611 20.0296 51.6111 19.9078C51.6062 19.8705 51.6088 19.8355 51.6191 19.8029C51.7559 19.8387 51.8842 19.8409 52.004 19.8093C52.1267 19.7763 52.2099 19.6902 52.2537 19.5511C52.2981 19.4098 52.29 19.2878 52.2291 19.185C52.1712 19.0808 52.09 19.0122 51.9857 18.9794C51.6444 18.872 51.4095 19.0227 51.2809 19.4313C51.1722 19.7769 51.1792 20.0622 51.3019 20.2871C51.3628 20.3971 51.4383 20.4686 51.5282 20.5016C51.6203 20.5354 51.729 20.5541 51.8545 20.5577C51.9634 20.561 52.0287 20.566 52.0504 20.5728C52.0656 20.5776 52.0741 20.6113 52.0759 20.674C52.0846 20.8893 52.1272 21.0461 52.2038 21.1442C52.3915 21.3753 52.5163 21.6355 52.5781 21.9249C52.6399 22.2143 52.627 22.4981 52.5395 22.7763C52.452 23.0545 52.3288 23.275 52.1702 23.4376C52.0115 23.6003 51.8329 23.7161 51.6344 23.785C51.2268 23.9267 50.8056 23.9291 50.3709 23.7923Z" fill="white"/>
<path d="M54.868 25.1022C54.7935 25.0627 54.7304 24.9919 54.6788 24.8898C54.6292 24.7887 54.6012 24.7004 54.5949 24.6248L54.5899 24.51C54.4578 24.6231 54.2992 24.6719 54.114 24.6563C54.0164 24.6458 53.926 24.6121 53.8427 24.5551C53.7604 24.5011 53.7107 24.449 53.6935 24.3987C53.6695 24.3369 53.6651 24.2843 53.6804 24.2409C53.8867 24.1825 54.0597 24.0872 54.1994 23.955C54.2932 23.8654 54.3841 23.7499 54.4721 23.6082C54.5631 23.4656 54.644 23.3202 54.7148 23.1721C54.7856 23.0239 54.8401 22.8942 54.8784 22.783C54.9363 22.6202 54.9603 22.4898 54.9504 22.3917C54.9425 22.2947 54.928 22.2174 54.9069 22.1598C54.8869 22.1002 54.8881 22.0493 54.9105 22.007C54.919 21.9909 54.9403 21.9776 54.9741 21.9672C55.007 21.9588 55.0501 21.943 55.1037 21.9198C55.1593 21.8977 55.2218 21.8599 55.2914 21.8065C55.4554 21.682 55.6227 21.4586 55.7934 21.1365C55.9641 20.8143 56.0523 20.6186 56.058 20.5495C56.0623 20.5414 55.9759 20.4904 55.7987 20.3966C55.6215 20.3027 55.4916 20.2558 55.409 20.2559C55.3275 20.2539 55.2389 20.2753 55.143 20.3199C55.0731 20.2571 55.0681 20.1693 55.1278 20.0566C55.1876 19.9438 55.2989 19.87 55.4618 19.8351C55.42 19.7485 55.4042 19.6615 55.4144 19.5741C55.4267 19.4877 55.4574 19.4176 55.5066 19.3637C55.5568 19.3078 55.6159 19.2863 55.6839 19.2991C55.7898 19.479 55.9222 19.611 56.0813 19.6953C56.1457 19.7295 56.2431 19.7501 56.3734 19.7573C56.5057 19.7655 56.597 19.7829 56.6474 19.8096C56.7762 19.8779 56.8452 20.0202 56.8544 20.2365C57.0345 20.1205 57.189 20.0966 57.3178 20.1649C57.3722 20.1937 57.4389 20.26 57.518 20.3638C57.5991 20.4686 57.6699 20.5371 57.7303 20.5691C57.8833 20.6502 58.067 20.6856 58.2813 20.6754C58.3296 20.701 58.3446 20.7579 58.3262 20.8461C58.3214 20.8746 58.3062 20.913 58.2806 20.9613C58.2572 21.0056 58.2165 21.0459 58.1585 21.0822C58.0706 21.1362 58.0032 21.1611 57.9565 21.157C58.0172 21.2614 58.0295 21.3672 57.9933 21.4743C57.9591 21.5826 57.9101 21.6533 57.8461 21.6865C57.8152 21.701 57.7799 21.7043 57.7404 21.6962C57.6922 21.4902 57.5604 21.3301 57.345 21.2159L57.0275 21.0632C56.9906 21.0745 56.9081 21.201 56.78 21.4426C56.6552 21.6782 56.5639 21.8774 56.506 22.0401C56.4503 22.1988 56.4253 22.3287 56.431 22.4298C56.4388 22.5319 56.4522 22.6137 56.4711 22.6753C56.49 22.737 56.4888 22.7879 56.4675 22.8282C56.4408 22.8785 56.3814 22.9128 56.2892 22.931C56.2002 22.9482 56.1092 23.0006 56.0164 23.0881C55.8736 23.2214 55.7185 23.446 55.551 23.7621C55.44 23.9715 55.3588 24.1516 55.3073 24.3022C55.259 24.4519 55.2353 24.589 55.2365 24.7134C55.2407 24.8368 55.2646 24.9668 55.3083 25.1034C55.2699 25.1759 55.1847 25.2004 55.0528 25.1769C55.0041 25.1666 54.9425 25.1417 54.868 25.1022Z" fill="white"/>
<path d="M60.2961 28.5466C59.9601 28.2221 59.7912 27.8705 59.7895 27.4919C59.7894 27.1115 59.9872 26.7165 60.3829 26.3068C60.7534 25.9233 60.9445 25.6105 60.9565 25.3686C60.9592 25.3396 60.9595 25.313 60.9575 25.2888C60.9571 25.2663 60.9568 25.2469 60.9565 25.2308C60.9559 25.1954 60.9619 25.1711 60.9746 25.158C60.9872 25.1449 61.0097 25.1397 61.042 25.1423C61.0727 25.1466 61.1146 25.1475 61.1677 25.145C61.2225 25.144 61.2859 25.1325 61.3581 25.1103C61.5327 25.054 61.7618 24.8793 62.0451 24.5859C62.8208 23.7828 63.5807 23.7406 64.3248 24.4593C64.6247 24.749 64.7849 25.0637 64.8053 25.4034C64.8199 25.69 64.6974 25.9677 64.4378 26.2364C64.0705 26.6167 63.8748 26.9472 63.8507 27.228C63.8268 27.2429 63.793 27.2451 63.7493 27.2346C63.7072 27.2257 63.6641 27.1998 63.6198 27.1571C63.533 27.0732 63.4709 26.9768 63.4335 26.8678C63.3978 26.7573 63.3785 26.6657 63.3756 26.5933C63.3752 26.5707 63.3475 26.5551 63.2926 26.5464C63.2393 26.5392 63.1737 26.5235 63.096 26.499C63.0182 26.4746 62.9424 26.4268 62.8687 26.3555C62.7163 26.2083 62.6717 26.1019 62.735 26.0363C62.7414 26.0298 62.7814 26.0178 62.8553 26.0004L63.0935 25.9359C63.3292 25.8721 63.5334 25.751 63.706 25.5723C63.9054 25.3658 63.988 25.2016 63.9536 25.0797C63.9433 25.038 63.9077 24.9847 63.8469 24.9196C63.7894 24.8546 63.7145 24.8091 63.6222 24.7833C63.5315 24.7559 63.4295 24.7762 63.3162 24.8442C63.2285 24.8925 63.1141 24.9896 62.9732 25.1354C62.9036 25.2075 62.8387 25.278 62.7787 25.3467C62.7186 25.4154 62.6642 25.4816 62.6153 25.5453C62.5176 25.6727 62.4493 25.7778 62.4105 25.8607C62.3296 26.0297 62.2947 26.1511 62.3056 26.2251C62.3239 26.3505 62.2943 26.4106 62.2169 26.4055C62.183 26.4045 62.1363 26.4069 62.0768 26.4128C62.0189 26.4202 61.95 26.4391 61.8699 26.4695C61.6778 26.5438 61.4338 26.7341 61.1377 27.0406L60.9929 27.1906C60.7792 27.4118 60.6604 27.5759 60.6364 27.6826C60.6139 27.7781 60.6111 27.8466 60.6279 27.8882C60.7036 28.0722 60.8086 28.1784 60.9428 28.2067C61.0658 28.2336 61.2333 28.1372 61.4454 27.9176C61.8539 27.4947 61.9839 27.1895 61.8357 27.0019C61.9006 26.9347 61.9899 26.9308 62.1038 26.99C62.151 27.0166 62.1991 27.0536 62.2483 27.1011C62.3516 27.2009 62.4015 27.341 62.3982 27.5215C62.5869 27.5295 62.7268 27.5585 62.8179 27.6085C62.9074 27.6602 62.9719 27.705 63.0112 27.743C63.0915 27.8205 63.1209 27.8869 63.0993 27.9421L63.09 27.9664C62.9357 27.9916 62.7886 28.057 62.6486 28.1626C62.5103 28.2697 62.3596 28.4077 62.1965 28.5765C62.0319 28.747 61.8752 28.8633 61.7264 28.9255C61.5744 28.991 61.4332 29.0225 61.3026 29.0199C61.1736 29.0157 61.0426 28.9889 60.9096 28.9397C60.6858 28.8565 60.4813 28.7255 60.2961 28.5466Z" fill="white"/>
<path d="M63.5322 31.5941C63.3904 31.3737 63.2936 31.1664 63.2417 30.9722C63.188 30.7791 63.1809 30.5872 63.2207 30.3963C63.2976 30.019 63.6072 29.6558 64.1494 29.3068C64.6093 29.0108 64.8436 28.7097 64.8523 28.4032C64.8544 28.3559 64.868 28.3349 64.8932 28.3404C64.9196 28.3478 64.9627 28.3621 65.0224 28.3832C65.084 28.4032 65.1663 28.4112 65.2694 28.4071C65.4712 28.3965 65.6996 28.3092 65.9544 28.1452C66.2112 27.9799 66.4252 27.8598 66.5964 27.7848C66.7689 27.7118 66.9251 27.6682 67.065 27.654C67.2068 27.6386 67.335 27.6441 67.4496 27.6706C67.5674 27.6978 67.6803 27.7512 67.7884 27.8306C67.8945 27.9114 67.9916 28.0033 68.0797 28.1065C68.169 28.2116 68.2624 28.3398 68.3598 28.4912C68.4572 28.6426 68.5347 28.7797 68.5921 28.9027C68.6495 29.0256 68.693 29.1521 68.7225 29.2821C68.7501 29.4134 68.7512 29.5373 68.726 29.6538C68.7007 29.7703 68.6526 29.8893 68.5818 30.0108C68.4407 30.2506 68.1652 30.5025 67.7551 30.7664C67.3106 31.0525 67.0692 31.3406 67.0311 31.6307C67.0286 31.6648 67.0245 31.6837 67.0188 31.6874C67.0111 31.6923 66.9897 31.6885 66.9545 31.6759C66.9193 31.6633 66.8793 31.6539 66.8345 31.6474C66.7917 31.6398 66.725 31.6393 66.6345 31.6461C66.4484 31.6602 66.1657 31.7893 65.7863 32.0334C65.5717 32.1716 65.3492 32.2741 65.1186 32.3412C64.89 32.407 64.6816 32.4179 64.4933 32.3738C64.3031 32.3309 64.1313 32.245 63.9779 32.1161C63.8226 31.9884 63.674 31.8144 63.5322 31.5941ZM64.2426 31.2832C64.3203 31.366 64.4076 31.4006 64.5045 31.387C64.6369 31.3695 64.7637 31.3245 64.885 31.2519C65.0063 31.1792 65.0861 31.1306 65.1244 31.1059L65.2853 31.0023C65.6456 30.7705 65.8761 30.5476 65.9769 30.3337C66.0011 30.2829 66.0159 30.2449 66.0214 30.2197C66.0256 30.1926 66.0325 30.176 66.0421 30.1698C66.0574 30.16 66.0881 30.1592 66.1341 30.1675C66.1813 30.1778 66.2347 30.1827 66.2941 30.1824C66.3586 30.1816 66.4688 30.1486 66.6247 30.0835C66.7818 30.0203 66.9361 29.94 67.0874 29.8426C67.189 29.7772 67.2656 29.7279 67.3174 29.6946C67.3691 29.6613 67.4116 29.6326 67.4449 29.6085C67.4794 29.5863 67.519 29.5594 67.5637 29.5279C67.714 29.4203 67.8045 29.3336 67.8353 29.2678C67.8673 29.2038 67.8847 29.1466 67.8874 29.0961C67.8947 29.0317 67.8725 28.9593 67.8207 28.8788C67.7689 28.7983 67.7231 28.7398 67.6833 28.7031C67.6371 28.6651 67.5894 28.6456 67.5401 28.6448C67.4852 28.6395 67.4346 28.6409 67.3883 28.649C67.344 28.6559 67.2791 28.6814 67.1937 28.7255C67.1414 28.7537 67.0766 28.79 66.9995 28.8343C66.9235 28.8804 66.8347 28.9362 66.7332 29.0016C66.532 29.131 66.3747 29.2445 66.2612 29.3419C66.1484 29.4361 66.0694 29.5154 66.0241 29.5798C65.9627 29.6654 65.9239 29.7378 65.9078 29.7969C65.8929 29.858 65.8797 29.8922 65.8682 29.8996C65.8548 29.9083 65.8134 29.9092 65.744 29.9024C65.6777 29.8963 65.59 29.9053 65.4809 29.9294C65.2957 29.97 65.0766 30.0717 64.8237 30.2345L64.6081 30.3732C64.3629 30.5311 64.224 30.6353 64.1916 30.686L64.1167 30.8033C64.0966 30.8352 64.0854 30.8641 64.0831 30.89C64.0839 30.9166 64.0847 30.9472 64.0854 30.982C64.0883 31.075 64.1407 31.1754 64.2426 31.2832Z" fill="white"/>
<path d="M66.3318 35.6008C66.3035 35.5311 66.3025 35.4406 66.3286 35.3292C66.3527 35.2186 66.3867 35.1298 66.4308 35.0628L66.4951 34.9666C66.3135 34.937 66.1557 34.8571 66.0218 34.727C65.9491 34.6507 65.9056 34.5737 65.8913 34.4959C65.8748 34.419 65.8699 34.3583 65.8765 34.3138C65.891 34.2465 65.9104 34.1943 65.9348 34.1574C66.0409 34.2373 66.1262 34.2839 66.1906 34.2971C66.2537 34.3133 66.3024 34.3243 66.3367 34.3301C66.371 34.3359 66.4203 34.3331 66.4846 34.3218L66.6387 34.2925C66.6771 34.2843 66.7401 34.2637 66.8275 34.2307C66.9158 34.1999 66.9874 34.1733 67.0423 34.151L67.3052 34.0445C67.8733 33.8142 68.2041 33.5596 68.2976 33.2808C68.321 33.2172 68.3621 33.2005 68.4211 33.2307C68.4516 33.2454 68.4938 33.2615 68.5476 33.279C68.6023 33.2986 68.6724 33.3108 68.7579 33.3155C68.9636 33.3255 69.248 33.2569 69.6113 33.1097C69.8541 33.0113 70.0443 32.9194 70.1819 32.8341C70.3203 32.751 70.4269 32.6623 70.5018 32.568C70.5767 32.4737 70.6398 32.3596 70.6913 32.2256C70.7694 32.194 70.8489 32.2294 70.9298 32.3318C70.9872 32.4069 71.027 32.4989 71.0491 32.608C71.0741 32.7183 71.0761 32.8233 71.055 32.9228C71.0289 33.0465 70.9892 33.1548 70.9359 33.2477C71.2261 33.3267 71.4132 33.4697 71.497 33.6767C71.5441 33.7928 71.5657 33.9218 71.5617 34.0636C71.5606 34.2066 71.5255 34.3352 71.4562 34.4493C71.4795 34.4522 71.5204 34.4651 71.5789 34.4881C71.6395 34.5102 71.6897 34.5341 71.7296 34.5598C71.868 34.6463 71.9479 34.7405 71.9696 34.8424C71.9942 34.9455 72.0012 35.0115 71.9908 35.0403C71.9783 35.0822 71.9569 35.1143 71.9265 35.1364C71.8026 35.0613 71.6799 35.0225 71.5585 35.0201C71.4379 35.0198 71.3037 35.0496 71.1558 35.1095C70.894 35.2157 70.7337 35.3814 70.6751 35.6068C70.6379 35.6121 70.5985 35.5998 70.5569 35.5699C70.5174 35.5392 70.4852 35.4932 70.4604 35.432C70.4048 35.2947 70.4132 35.1426 70.4856 34.9755C70.3911 34.9425 70.3104 34.8892 70.2437 34.8154C70.179 34.7408 70.1391 34.6636 70.1239 34.5837C70.1096 34.5059 70.1298 34.4436 70.1846 34.3968C70.3797 34.4898 70.5564 34.5042 70.7148 34.44C70.8035 34.4041 70.872 34.3517 70.9204 34.283C70.9708 34.2133 70.9768 34.131 70.9383 34.036C70.8638 33.8522 70.7474 33.7925 70.589 33.8567L70.5605 33.8682L69.1647 34.5557C69.324 34.9485 69.5056 35.2117 69.7098 35.3453C69.7278 35.3897 69.71 35.4276 69.6564 35.4592C69.6028 35.4907 69.5345 35.5073 69.4516 35.509C69.3716 35.5119 69.2962 35.4896 69.2253 35.4421L69.1686 35.4024C69.1302 35.5926 69.0529 35.7112 68.9367 35.7583C68.8459 35.7951 68.7856 35.7949 68.7558 35.7578L68.7405 35.7382C68.7931 35.4858 68.7423 35.1695 68.5882 34.7894L67.7033 35.0264L67.4404 35.133C67.0961 35.2725 66.8873 35.3941 66.8137 35.4977C66.7451 35.5894 66.7019 35.6647 66.684 35.7236C66.666 35.7825 66.6521 35.8422 66.6423 35.9028C66.564 35.8976 66.4993 35.8624 66.4482 35.797C66.398 35.7338 66.3592 35.6684 66.3318 35.6008Z" fill="white"/>
<path d="M68.0417 39.7583C68.027 39.6845 68.043 39.5954 68.0896 39.4909C68.1339 39.3868 68.1841 39.306 68.24 39.2484L68.3212 39.166C68.1484 39.1028 68.0084 38.9947 67.9013 38.8418C67.8442 38.7532 67.8159 38.6694 67.8165 38.5903C67.8148 38.5116 67.8213 38.4511 67.8361 38.4087C67.863 38.3452 67.8919 38.2977 67.9228 38.266C68.012 38.3644 68.087 38.4262 68.1478 38.4513C68.2067 38.479 68.2525 38.499 68.2851 38.5111C68.3177 38.5232 68.3667 38.5297 68.4319 38.5307L68.5888 38.5309C68.6281 38.53 68.6938 38.5216 68.7859 38.5056C68.8784 38.4919 68.9537 38.4793 69.0118 38.4677L69.2901 38.4124C69.8913 38.2929 70.2639 38.105 70.4081 37.8486C70.4431 37.7906 70.4867 37.7819 70.5389 37.8226C70.5661 37.8428 70.6045 37.8665 70.6541 37.8938C70.7041 37.9234 70.7707 37.9485 70.8538 37.9691C71.0539 38.0176 71.3462 38.0037 71.7306 37.9273C71.9876 37.8762 72.1917 37.8217 72.3428 37.7638C72.4943 37.7081 72.6158 37.641 72.707 37.5624C72.7983 37.4839 72.8817 37.3837 72.9574 37.2618C73.0401 37.2453 73.1115 37.295 73.1717 37.4108C73.2141 37.4953 73.2359 37.5932 73.2371 37.7045C73.241 37.8176 73.2232 37.921 73.1837 38.0148C73.1349 38.1314 73.0756 38.2303 73.0058 38.3115C73.276 38.4437 73.4328 38.6193 73.4764 38.8383C73.5008 38.9612 73.4977 39.0919 73.4672 39.2304C73.4393 39.3707 73.3806 39.4904 73.2911 39.5895C73.3135 39.5967 73.3512 39.6171 73.4044 39.6506C73.4597 39.6838 73.5046 39.7167 73.539 39.7493C73.6586 39.8603 73.7195 39.9679 73.7216 40.072C73.7264 40.1779 73.7209 40.244 73.7053 40.2704C73.6851 40.3092 73.658 40.3367 73.6241 40.3527C73.5165 40.2556 73.4033 40.1945 73.2844 40.1693C73.166 40.1464 73.0286 40.1505 72.8722 40.1816C72.595 40.2367 72.4065 40.3694 72.3066 40.5798C72.2691 40.5779 72.2327 40.5584 72.1974 40.5213C72.1644 40.4837 72.1414 40.4325 72.1286 40.3677C72.0997 40.2224 72.1365 40.0746 72.239 39.9241C72.1524 39.8739 72.0832 39.8064 72.0315 39.7214C71.982 39.636 71.9572 39.5526 71.9573 39.4713C71.9579 39.3922 71.9895 39.3348 72.0521 39.2991C72.2262 39.4272 72.3971 39.4745 72.5647 39.4412C72.6586 39.4225 72.7357 39.384 72.7961 39.3255C72.8587 39.2666 72.88 39.1868 72.86 39.0863C72.8214 38.8918 72.7183 38.8113 72.5506 38.8446L72.5205 38.8506L71.0205 39.2637C71.1031 39.6794 71.2321 39.9721 71.4076 40.1416C71.4169 40.1886 71.3923 40.2225 71.3337 40.2434C71.2751 40.2644 71.205 40.2679 71.1232 40.2539C71.0441 40.2418 70.9742 40.2057 70.9135 40.1457L70.8653 40.0961C70.7918 40.2756 70.6936 40.3776 70.5707 40.4021C70.4746 40.4212 70.4154 40.4097 70.3931 40.3677L70.3817 40.3455C70.4808 40.1075 70.4903 39.7873 70.4104 39.385L69.4966 39.4516L69.2184 39.5069C68.8541 39.5793 68.6261 39.6595 68.5344 39.7474C68.4498 39.8247 68.3932 39.8905 68.3645 39.945C68.3359 39.9995 68.311 40.0555 68.2899 40.1132C68.214 40.0934 68.1571 40.0466 68.1192 39.9729C68.0817 39.9013 68.0559 39.8298 68.0417 39.7583Z" fill="white"/>
<path d="M68.9194 42.9406C68.9187 42.8517 68.9351 42.7775 68.9688 42.718C69.0025 42.6584 69.0364 42.6239 69.0705 42.6145L69.1216 42.6004C69.1886 42.7115 69.2508 42.785 69.3081 42.821C69.3631 42.8593 69.4055 42.8874 69.4353 42.9054C69.4673 42.9256 69.5153 42.9423 69.5792 42.9554L69.7367 42.9848C69.7755 42.9913 69.8416 42.9953 69.9351 42.9968C70.0308 43.0006 70.1083 43.0022 70.1676 43.0017L70.4547 42.9992C71.0357 42.9942 71.4232 42.8793 71.6173 42.6543C71.6556 42.6061 71.6978 42.6058 71.7437 42.6532C71.7667 42.6781 71.8 42.7086 71.8436 42.7446C71.8873 42.783 71.948 42.8201 72.0258 42.8559C72.2133 42.9409 72.5031 42.9817 72.895 42.9783C73.157 42.9761 73.3677 42.9606 73.5269 42.9319C73.6862 42.9055 73.818 42.8622 73.9223 42.8021C74.0266 42.7419 74.1273 42.659 74.2244 42.5534C74.3064 42.5527 74.3674 42.616 74.4072 42.7432C74.4213 42.791 74.4287 42.8604 74.4295 42.9516C74.4303 43.0427 74.3981 43.141 74.3329 43.2463C74.2677 43.354 74.2034 43.432 74.1401 43.4804L74.0416 43.553C74.3054 43.765 74.4385 44.0054 74.4408 44.2743C74.442 44.4178 74.4148 44.5662 74.3591 44.7193C74.3058 44.8747 74.2259 44.9973 74.1196 45.0871C74.3398 45.2493 74.4508 45.442 74.4527 45.6653C74.454 45.818 74.4024 45.9084 74.2978 45.9367C74.2102 45.8235 74.1115 45.7434 74.0018 45.6965C73.892 45.6519 73.7574 45.6303 73.5979 45.6316C73.3176 45.634 73.1076 45.7281 72.9679 45.9139C72.904 45.8985 72.8626 45.851 72.8437 45.7714C72.827 45.6918 72.8297 45.604 72.8517 45.5081C72.8759 45.4145 72.9163 45.3366 72.9727 45.2746L73.0236 45.2229C72.8926 45.0942 72.8264 44.9455 72.8249 44.7769C72.8238 44.6424 72.8675 44.5612 72.9561 44.5331C73.1056 44.6936 73.2772 44.773 73.4709 44.7713C73.6874 44.7695 73.7945 44.6455 73.7924 44.3994C73.7903 44.1534 73.7107 44.031 73.5534 44.0323L73.5227 44.0326L71.9962 44.1926C71.9983 44.4433 72.0137 44.6402 72.0422 44.7836C72.0731 44.9291 72.1266 45.0563 72.2027 45.165C72.2029 45.1878 72.186 45.2084 72.152 45.227C72.1203 45.2477 72.0805 45.2583 72.0326 45.2588C71.9096 45.2598 71.7995 45.181 71.7025 45.0223C71.6892 45.0657 71.6588 45.1081 71.6113 45.1496C71.5276 45.2255 71.4539 45.2637 71.3901 45.2642C71.2784 45.2652 71.2156 45.2429 71.2015 45.1975L71.1945 45.1736C71.3271 44.9651 71.3916 44.6399 71.3878 44.1978L69.8861 44.0603C69.7334 44.0616 69.6392 44.1079 69.6036 44.1994C69.5745 44.268 69.5605 44.3581 69.5614 44.4698C69.5623 44.5769 69.6041 44.6597 69.6866 44.7182C69.7714 44.7768 69.8753 44.8055 69.9984 44.8044C70.2012 44.8027 70.3805 44.7203 70.5363 44.5572C70.6277 44.5792 70.6738 44.646 70.6748 44.7576C70.6764 44.9513 70.6287 45.0976 70.5315 45.1964L70.4807 45.2481C70.614 45.3791 70.6814 45.5289 70.6828 45.6976C70.6839 45.8297 70.639 45.9098 70.5481 45.938C70.4007 45.7547 70.1653 45.6644 69.8417 45.6671C69.5159 45.6699 69.2672 45.7757 69.0958 45.9846C69.0389 45.9851 68.994 45.9376 68.9613 45.8422C68.9496 45.8012 68.9435 45.7591 68.9432 45.7158C68.9412 45.4903 69.0478 45.2957 69.2629 45.132C69.155 45.0418 69.0731 44.9217 69.0171 44.7718C68.9658 44.631 68.9385 44.507 68.9353 44.3999C68.9321 44.2951 68.9383 44.2096 68.9536 44.1434C68.9756 44.0521 69.008 43.9721 69.0507 43.9033C69.0911 43.8346 69.1294 43.7807 69.1655 43.7417C69.2197 43.682 69.2695 43.6349 69.3147 43.6003C69.159 43.5105 69.0416 43.3702 68.9625 43.1795C68.9345 43.109 68.9202 43.0294 68.9194 42.9406Z" fill="white"/>
<path d="M69.1963 47.3393C69.2121 47.2519 69.2422 47.1821 69.2864 47.1299C69.3306 47.0777 69.3703 47.0501 69.4055 47.0473L69.4584 47.043C69.5035 47.1646 69.5509 47.2484 69.6004 47.2945C69.6473 47.3423 69.6837 47.3779 69.7096 47.4011C69.7373 47.427 69.7814 47.4523 69.8417 47.4772L69.9909 47.5355C70.0278 47.5491 70.092 47.5654 70.1836 47.5843C70.2769 47.6058 70.3527 47.6219 70.411 47.6325L70.6935 47.6837C71.2653 47.7873 71.6675 47.7468 71.9001 47.562C71.9468 47.5218 71.9882 47.5293 72.0246 47.5845C72.0425 47.6133 72.0695 47.6494 72.1056 47.693C72.1413 47.7389 72.194 47.7866 72.2638 47.8363C72.4322 47.9549 72.7092 48.0491 73.0948 48.119C73.3527 48.1657 73.5625 48.1899 73.7243 48.1914C73.8857 48.1952 74.0233 48.1773 74.137 48.1377C74.2507 48.0981 74.3651 48.0355 74.4802 47.9498C74.5609 47.9644 74.609 48.038 74.6243 48.1705C74.6293 48.22 74.6236 48.2896 74.6073 48.3793C74.5911 48.4689 74.5411 48.5595 74.4574 48.6508C74.3732 48.7444 74.2955 48.8091 74.2242 48.8448L74.1139 48.8977C74.3335 49.1552 74.4193 49.4162 74.3714 49.6808C74.3458 49.8221 74.2913 49.9627 74.2081 50.1028C74.1266 50.2455 74.0253 50.351 73.904 50.4193C74.09 50.6198 74.1631 50.8299 74.1233 51.0496C74.096 51.1998 74.0284 51.279 73.9204 51.2873C73.8555 51.1597 73.7735 51.0626 73.6744 50.996C73.575 50.9317 73.4467 50.8853 73.2898 50.8568C73.014 50.8068 72.7902 50.8601 72.6182 51.0165C72.5583 50.9894 72.5265 50.935 72.5228 50.8533C72.5213 50.772 72.5403 50.6862 72.5798 50.5961C72.6211 50.5087 72.6753 50.4398 72.7423 50.3894L72.8019 50.3481C72.6973 50.1971 72.66 50.0387 72.6901 49.8728C72.7141 49.7405 72.7722 49.6688 72.8645 49.6578C72.9814 49.8434 73.1351 49.9534 73.3257 49.988C73.5387 50.0266 73.6672 49.9248 73.7111 49.6827C73.7549 49.4405 73.6995 49.3054 73.5448 49.2774L73.5146 49.2719L71.985 49.144C71.9403 49.3906 71.9186 49.587 71.9199 49.7332C71.923 49.8819 71.9519 50.0168 72.0063 50.1379C72.0023 50.1603 71.9818 50.1774 71.9449 50.1893C71.9099 50.2037 71.8688 50.2067 71.8217 50.1982C71.7006 50.1762 71.6072 50.0783 71.5415 49.9042C71.5204 49.9444 71.4826 49.9804 71.4282 50.0122C71.3318 50.0712 71.2522 50.095 71.1894 50.0836C71.0796 50.0637 71.022 50.0301 71.0167 49.9828L71.0142 49.958C71.1835 49.778 71.3075 49.4705 71.3864 49.0355L69.9368 48.6199C69.7866 48.5926 69.6854 48.6206 69.6332 48.7038C69.5919 48.7658 69.5613 48.8517 69.5414 48.9616C69.5223 49.0669 69.5478 49.1561 69.6179 49.229C69.6903 49.3024 69.7871 49.35 69.9081 49.3719C70.1077 49.4081 70.2992 49.3606 70.4828 49.2295C70.5684 49.2682 70.6013 49.3424 70.5814 49.4523C70.5468 49.6429 70.4726 49.7776 70.3587 49.8566L70.2991 49.8979C70.4056 50.0515 70.4438 50.2112 70.4137 50.3772C70.3901 50.5072 70.3311 50.5775 70.2365 50.5882C70.1259 50.3806 69.9114 50.2479 69.5931 50.1902C69.2724 50.1321 69.0084 50.1896 68.8011 50.3627C68.745 50.3526 68.7098 50.2976 68.6955 50.1977C68.6916 50.1553 68.6935 50.1128 68.7012 50.0702C68.7415 49.8482 68.8825 49.677 69.1244 49.5564C69.0353 49.4476 68.9772 49.3143 68.9502 49.1566C68.9261 49.0087 68.9225 48.8818 68.9393 48.776C68.9558 48.6725 68.9777 48.5896 69.0052 48.5274C69.0439 48.4418 69.0906 48.3692 69.1454 48.3097C69.198 48.2497 69.2456 48.204 69.2884 48.1723C69.3528 48.1238 69.4105 48.0868 69.4614 48.0613C69.3252 47.944 69.2361 47.7842 69.194 47.5821C69.1797 47.5077 69.1804 47.4268 69.1963 47.3393Z" fill="white"/>
<path d="M46.3272 42.2669C42.6887 42.2669 40.0619 41.6787 38.9236 41.2259C39.3038 44.193 40.8491 57.1063 40.9836 57.6182C41.1477 58.243 46.9206 60.3359 50.6865 57.7091C50.7679 57.6524 50.8198 57.5621 50.8309 57.4637C50.9948 55.9848 52.2867 44.3231 52.5725 41.3543C51.4906 41.7789 49.4587 42.2669 46.3272 42.2669Z" fill="#4C3B30"/>
<path d="M43.486 49.1027L39.7283 48.3384L39.983 50.9966L43.6771 52.0997L43.486 49.1027Z" fill="#D1A66C"/>
<path d="M48.1618 49.1027L51.9195 48.3384L51.6647 50.9966L47.9707 52.0997L48.1618 49.1027Z" fill="#D1A66C"/>
<path d="M48.6454 52.8895C50.0912 51.3186 49.9898 48.873 48.4189 47.4271C46.8479 45.9813 44.4023 46.0827 42.9564 47.6537C41.5106 49.2246 41.612 51.6702 43.183 53.1161C44.7539 54.5619 47.1995 54.4605 48.6454 52.8895Z" fill="#D1A66C"/>
<path opacity="0.6" d="M45.8013 53.6663C47.6728 53.6663 49.1899 52.1492 49.1899 50.2778C49.1899 48.4063 47.6728 46.8892 45.8013 46.8892C43.9298 46.8892 42.4127 48.4063 42.4127 50.2778C42.4127 52.1492 43.9298 53.6663 45.8013 53.6663Z" fill="#5B483E"/>
<path d="M43.4089 50.9354C43.4302 50.811 43.4471 50.6856 43.4733 50.5623C43.516 50.3614 43.5868 50.1696 43.6721 49.9828C43.7895 49.7256 43.9385 49.4881 44.1124 49.266C44.2964 49.0312 44.504 48.8198 44.7358 48.6312C45.0166 48.4026 45.3219 48.2155 45.6585 48.0813C46.0362 47.9309 46.4261 47.853 46.8343 47.8977C47.0289 47.9191 47.2143 47.9743 47.3888 48.0642C47.3947 48.0672 47.3998 48.0722 47.4152 48.0836C47.3417 48.1166 47.2749 48.1473 47.2077 48.1766C46.9909 48.271 46.7702 48.3577 46.5579 48.461C46.3816 48.5468 46.2421 48.6831 46.1149 48.8324C45.858 49.1338 45.7038 49.487 45.5818 49.8581C45.4996 50.1081 45.4255 50.3614 45.2996 50.5948C45.1918 50.7948 45.0423 50.9607 44.8783 51.1152C44.6246 51.3541 44.3479 51.5629 44.0498 51.742C43.921 51.8194 43.7827 51.8811 43.6462 51.9511C43.5545 51.808 43.4967 51.6674 43.4633 51.5174C43.4418 51.4203 43.4271 51.3216 43.4095 51.2237C43.4089 51.1281 43.4089 51.0317 43.4089 50.9354Z" fill="#F2EEE3"/>
<path d="M44.0291 52.3627C44.1745 52.2776 44.3172 52.201 44.4528 52.1133C44.8853 51.8331 45.2863 51.5158 45.6028 51.104C45.7491 50.9136 45.8572 50.7015 45.935 50.474C46.0134 50.2449 46.0886 50.0148 46.1732 49.7882C46.2678 49.5347 46.3976 49.3001 46.5859 49.1018C46.6753 49.0078 46.7793 48.932 46.8977 48.8808C47.097 48.7948 47.3004 48.7183 47.4997 48.6321C47.6055 48.5862 47.7068 48.5295 47.8087 48.4747C47.8408 48.4574 47.8571 48.4567 47.8822 48.4894C48.0988 48.7704 48.1862 49.0913 48.1932 49.4415C48.2007 49.8182 48.1088 50.1716 47.9602 50.5131C47.7158 51.0745 47.3432 51.5389 46.8717 51.9245C46.5241 52.2085 46.1391 52.4278 45.7076 52.5593C45.3493 52.6683 44.9852 52.7061 44.6153 52.6328C44.4162 52.5934 44.2314 52.5141 44.0649 52.3959C44.0519 52.3866 44.0414 52.3744 44.0291 52.3627Z" fill="#F2EEE3"/>
<g opacity="0.6">
<path d="M39.9456 41.8491C40.0266 43.4871 40.1858 45.111 40.4001 46.7366C40.5108 47.5782 41.8504 47.5893 41.7381 46.7366C41.524 45.111 41.3647 43.4871 41.2837 41.8491C41.2414 40.992 39.903 40.987 39.9456 41.8491Z" fill="#5B483E"/>
</g>
<path d="M38.8323 41.3293C39.9706 41.7821 42.5973 42.3704 46.2359 42.3704C49.3674 42.3704 51.3993 41.8824 52.481 41.4578C53.0747 41.2248 53.3832 41.0107 53.4276 40.9069C53.5531 40.6141 53.5113 39.3179 53.2605 38.858C53.0219 38.4209 51.3834 37.3797 46.6616 37.0623C46.6155 37.2405 46.5715 37.4111 46.5299 37.5711C48.6351 37.6425 52.8018 38.1365 52.3406 39.4433C51.8389 40.8649 49.121 40.5723 46.3195 40.8649C43.5181 41.1577 39.0023 40.1541 39.0441 39.1506C39.0839 38.1941 41.7788 37.6178 45.4758 37.5659C45.5174 37.3923 45.5625 37.205 45.6105 37.007C41.4692 36.8665 38.699 37.9561 38.2496 38.7324C37.7897 39.5268 38.0823 40.5722 38.2079 40.9484C38.2391 41.0426 38.4532 41.1786 38.8323 41.3293Z" fill="#5B483E"/>
<path opacity="0.6" d="M46.5297 37.5711C46.5131 37.6348 46.4971 37.6969 46.4814 37.757C46.4607 37.8366 46.4407 37.9124 46.4216 37.9848C47.7431 38.0589 48.9001 38.3352 49.0791 38.8719C49.5251 40.21 42.1103 39.6524 42.1103 38.816C42.1103 38.319 43.7106 38 45.38 37.9668C45.395 37.9035 45.4107 37.8375 45.4273 37.7684C45.4428 37.7033 45.4591 37.6357 45.4757 37.5659C41.7788 37.6178 39.0837 38.1939 39.0439 39.1506C39.0022 40.1541 43.518 41.1575 46.3194 40.8649C49.1208 40.5722 51.8387 40.8649 52.3404 39.4433C52.8016 38.1367 48.635 37.6425 46.5297 37.5711Z" fill="#5B483E"/>
<path d="M49.0791 38.8719C48.9001 38.3351 47.7431 38.0587 46.4216 37.9848C46.3683 38.1871 46.3221 38.3591 46.2848 38.4913C46.2403 38.6491 46.2086 38.7499 46.194 38.7745C46.0685 38.9836 45.4414 39.2762 45.1904 38.7745C45.1904 38.7745 45.2182 38.6539 45.2675 38.4441C45.2974 38.3163 45.3354 38.155 45.38 37.9672C43.7106 38.0002 42.1103 38.3193 42.1103 38.8164C42.1103 39.6524 49.5251 40.21 49.0791 38.8719Z" fill="#4C3B30"/>
<path d="M45.4273 37.7686C45.4109 37.8378 45.3952 37.9036 45.38 37.9672C45.3354 38.155 45.2974 38.3163 45.2674 38.4441C45.2182 38.6539 45.1904 38.7745 45.1904 38.7745C45.4412 39.2762 46.0685 38.9836 46.1939 38.7745C46.2087 38.7499 46.2403 38.6491 46.2847 38.4913C46.322 38.3593 46.3682 38.1871 46.4216 37.9848C46.4407 37.9124 46.4607 37.8366 46.4814 37.757C46.4971 37.6969 46.5131 37.6348 46.5297 37.5711C46.5713 37.4111 46.6153 37.2405 46.6614 37.0623C47.1124 35.3167 47.7438 32.8642 47.9083 32.8369C48.1591 32.7952 49.7898 34.9693 50.2498 34.8021C50.7097 34.6348 50.9606 34.3422 50.7097 34.0077C50.4589 33.6731 47.8246 30.4535 47.3229 31.0808C46.9838 31.5047 46.129 34.8701 45.6105 37.0071C45.5625 37.2052 45.5174 37.3925 45.4758 37.5661C45.4591 37.6359 45.4428 37.7035 45.4273 37.7686Z" fill="#AF8B5F"/>
<path d="M27.2657 66.0764C27.0855 65.8108 26.8847 65.5718 26.7459 65.3006C26.1149 64.0675 25.1085 63.3821 23.7644 63.1334C23.2869 63.045 22.8045 62.9157 22.3622 62.7192C21.5675 62.3662 21.0923 61.6893 20.8058 60.8891C20.7508 60.7355 20.8196 60.4713 20.9275 60.3347C21.4709 59.6459 22.2322 59.4178 23.0451 59.5915C25.3837 60.0911 26.9619 61.5171 27.7691 63.7689C28.0716 64.6127 27.8532 65.4483 27.2657 66.0764Z" fill="#F8F8F8"/>
<path d="M20.3271 61.356C20.5105 61.7321 20.6287 61.9936 20.763 62.2466C21.2697 63.2016 22.0669 63.7392 23.1468 63.8078C24.941 63.9217 25.9174 65.087 26.6833 66.5149C26.7403 66.6211 26.6295 66.9075 26.5103 67.0012C25.7721 67.5819 24.907 67.6101 24.0595 67.362C22.1158 66.793 20.7815 65.5428 20.1285 63.6189C19.8902 62.917 19.9007 62.2058 20.3271 61.356Z" fill="#F8F8F8"/>
<path d="M39.933 72.7466C39.6709 72.5615 39.3988 72.4084 39.1734 72.2034C38.1486 71.2715 36.9654 70.9843 35.6197 71.2247C35.1417 71.3101 34.6447 71.3589 34.1615 71.3307C33.2934 71.2801 32.6103 70.8139 32.0604 70.1657C31.9549 70.0413 31.9263 69.7698 31.9791 69.604C32.2453 68.7679 32.8776 68.2864 33.6995 68.1628C36.0643 67.8071 38.0435 68.5861 39.5918 70.4096C40.172 71.0929 40.2618 71.9519 39.933 72.7466Z" fill="#F8F8F8"/>
<path d="M31.7768 70.7713C32.0809 71.0587 32.2836 71.2618 32.4984 71.4514C33.3088 72.1668 34.2443 72.3893 35.2791 72.0734C36.9986 71.5483 38.3228 72.2952 39.5423 73.3621C39.6331 73.4414 39.6301 73.7484 39.5515 73.8781C39.0651 74.6816 38.2653 75.0125 37.3847 75.0787C35.3652 75.2304 33.6761 74.53 32.3875 72.9592C31.9174 72.3861 31.6769 71.7167 31.7768 70.7713Z" fill="#F8F8F8"/>
<path d="M57.5896 70.9413C57.2736 70.8851 56.9623 70.8621 56.6711 70.7722C55.3477 70.3637 54.1545 70.6062 53.0383 71.3953C52.6418 71.6757 52.2125 71.931 51.7631 72.1106C50.9557 72.4334 50.1392 72.3015 49.3661 71.9483C49.2178 71.8804 49.0766 71.6468 49.054 71.4742C48.9399 70.6042 49.3078 69.8998 49.9994 69.4388C51.9893 68.1124 54.112 67.9771 56.2881 68.9705C57.1036 69.3427 57.5497 70.0822 57.5896 70.9413Z" fill="#F8F8F8"/>
<path d="M49.3666 72.6169C49.7639 72.748 50.0337 72.8458 50.3087 72.9262C51.3463 73.2297 52.2876 73.0339 53.0903 72.3083C54.424 71.1027 55.9401 71.2166 57.4973 71.6645C57.6131 71.6978 57.7409 71.977 57.7248 72.1278C57.6256 73.0618 57.042 73.701 56.273 74.1349C54.509 75.1299 52.6824 75.2132 50.8487 74.3383C50.1797 74.0191 49.6776 73.5153 49.3666 72.6169Z" fill="#F8F8F8"/>
<path d="M70.6107 61.5741C70.311 61.6887 70.0323 61.8295 69.7365 61.9026C68.3919 62.2349 67.4945 63.0578 66.9449 64.3094C66.7496 64.7541 66.5134 65.1941 66.221 65.5797C65.6955 66.2726 64.9279 66.5804 64.0834 66.6763C63.9213 66.6946 63.6798 66.5672 63.5715 66.431C63.0252 65.7443 62.9773 64.9511 63.3323 64.1995C64.3536 62.0371 66.1028 60.8269 68.4795 60.5563C69.3702 60.4548 70.1337 60.8585 70.6107 61.5741Z" fill="#F8F8F8"/>
<path d="M64.4284 67.249C64.8365 67.1565 65.1181 67.1013 65.3951 67.0284C66.4407 66.7535 67.1464 66.1004 67.4601 65.0649C67.9814 63.3443 69.3392 62.6603 70.9044 62.2413C71.0208 62.2101 71.2742 62.3835 71.3382 62.521C71.7347 63.3725 71.5642 64.2211 71.1289 64.9893C70.1304 66.7513 68.6081 67.7643 66.5858 67.96C65.848 68.0314 65.1581 67.8585 64.4284 67.249Z" fill="#F8F8F8"/>
</g>
<defs>
<clipPath id="clip0_3_2">
<rect width="90" height="90" fill="white"/>
</clipPath>
</defs>
</svg>
