<svg width="165" height="32" viewBox="0 0 165 32" fill="none" xmlns="http://www.w3.org/2000/svg">
<line y1="-0.5" x2="59.7313" y2="-0.5" transform="matrix(-1 0 0 1 59.7313 13.1824)" stroke="url(#paint0_linear_32_89)"/>
<line y1="-0.5" x2="69" y2="-0.5" transform="matrix(-1 -8.74228e-08 -8.74228e-08 1 69 18.1824)" stroke="url(#paint1_linear_32_89)"/>
<path d="M95.9037 6.41951C94.9147 6.79754 94.1143 7.15885 93.281 7.41211C90.3578 8.30107 88.4848 10.2646 87.4342 13.0664C86.3485 15.9624 84.4194 17.8503 81.3075 18.4492C80.5598 18.5931 80.112 18.4029 79.6919 17.787C78.3427 15.8098 78.5438 13.7582 79.6073 11.8388C81.8775 7.74136 85.3795 5.17696 89.9897 4.29022C92.1925 3.8665 94.2333 4.32758 95.9037 6.41951Z" fill="#CE8A4B"/>
<path d="M81.6369 19.8481C82.5494 19.5393 83.2251 19.294 83.9108 19.0816C86.0525 18.4182 87.6747 17.1005 88.277 14.9376C89.4041 10.89 92.3132 8.9481 96.0523 7.77819C96.9451 7.49882 97.2949 7.76662 97.5968 8.51007C98.2583 10.1401 98.1615 11.7772 97.46 13.3219C95.32 18.0344 91.6084 20.6767 86.4865 21.2635C84.7813 21.459 83.1508 21.0747 81.6369 19.8481Z" fill="#CE8A4B"/>
<path d="M72.3972 10.9612C73.0973 11.7555 73.7158 12.379 74.2446 13.071C76.1 15.4985 78.5947 16.5663 81.5869 16.5703C84.6798 16.5744 87.1233 17.7211 88.7729 20.4268C89.1693 21.077 89.1478 21.563 88.7178 22.172C87.3375 24.1276 85.3451 24.6569 83.175 24.3321C78.5423 23.6387 74.9148 21.2551 72.4713 17.2464C71.3038 15.331 71.0218 13.2579 72.3972 10.9612Z" fill="#CE8A4B"/>
<path d="M89.9682 19.6288C89.3597 18.882 88.8936 18.3348 88.4547 17.7668C87.084 15.9924 85.282 14.9338 83.0451 15.1261C78.859 15.4862 76.0221 13.4402 73.6181 10.3467C73.044 9.60804 73.1725 9.18664 73.7634 8.64378C75.059 7.4538 76.6265 6.97177 78.319 7.08857C83.4824 7.4448 87.2562 9.99748 89.5976 14.5906C90.3774 16.1195 90.5877 17.7815 89.9682 19.6288Z" fill="#CE8A4B"/>
<line x1="107" y1="12.6824" x2="165" y2="12.6824" stroke="url(#paint2_linear_32_89)"/>
<line x1="98" y1="17.6824" x2="165" y2="17.6824" stroke="url(#paint3_linear_32_89)"/>
<defs>
<linearGradient id="paint0_linear_32_89" x1="0" y1="0.5" x2="59.7313" y2="0.5" gradientUnits="userSpaceOnUse">
<stop stop-color="#F5F2EB"/>
<stop offset="0.525" stop-color="#4E3120"/>
<stop offset="1" stop-color="#F5F2EB"/>
</linearGradient>
<linearGradient id="paint1_linear_32_89" x1="0" y1="0.5" x2="69" y2="0.5" gradientUnits="userSpaceOnUse">
<stop stop-color="#F5F2EB"/>
<stop offset="0.525" stop-color="#4E3120"/>
<stop offset="1" stop-color="#F5F2EB"/>
</linearGradient>
<linearGradient id="paint2_linear_32_89" x1="107" y1="13.6824" x2="165" y2="13.6824" gradientUnits="userSpaceOnUse">
<stop stop-color="#F5F2EB"/>
<stop offset="0.525" stop-color="#4E3120"/>
<stop offset="1" stop-color="#F5F2EB"/>
</linearGradient>
<linearGradient id="paint3_linear_32_89" x1="98" y1="18.6824" x2="165" y2="18.6824" gradientUnits="userSpaceOnUse">
<stop stop-color="#F5F2EB"/>
<stop offset="0.525" stop-color="#4E3120"/>
<stop offset="1" stop-color="#F5F2EB"/>
</linearGradient>
</defs>
</svg>
